<?xml version="1.0" encoding="UTF-8" standalone="no"?>
<!-- Created with Inkscape (http://www.inkscape.org/) -->

<svg
   width="181.64648"
   height="119.39062"
   viewBox="0 0 48.060631 31.588769"
   version="1.1"
   id="svg1"
   inkscape:version="1.4.2 (ebf0e940d0, 2025-05-08)"
   sodipodi:docname="çizim.svg"
   xmlns:inkscape="http://www.inkscape.org/namespaces/inkscape"
   xmlns:sodipodi="http://sodipodi.sourceforge.net/DTD/sodipodi-0.dtd"
   xmlns="http://www.w3.org/2000/svg"
   xmlns:svg="http://www.w3.org/2000/svg">
  <sodipodi:namedview
     id="namedview1"
     pagecolor="#000000"
     bordercolor="#000000"
     borderopacity="0.25"
     inkscape:showpageshadow="2"
     inkscape:pageopacity="0.0"
     inkscape:pagecheckerboard="0"
     inkscape:deskcolor="#d1d1d1"
     inkscape:document-units="mm"
     inkscape:zoom="3.350136"
     inkscape:cx="109.99553"
     inkscape:cy="70.892644"
     inkscape:window-width="1920"
     inkscape:window-height="1005"
     inkscape:window-x="0"
     inkscape:window-y="40"
     inkscape:window-maximized="1"
     inkscape:current-layer="layer1">
    <inkscape:page
       x="0"
       y="0"
       width="48.060631"
       height="31.58877"
       id="page2"
       margin="0"
       bleed="0" />
  </sodipodi:namedview>
  <defs
     id="defs1" />
  <g
     inkscape:label="Katman 1"
     inkscape:groupmode="layer"
     id="layer1"
     transform="translate(-2.3311239,-2.8241168)">
    <path
       id="rect1"
       style="fill:#ffffff;stroke-width:1.58074;stroke-linecap:square;stroke-linejoin:round;stroke-dashoffset:3.40157;paint-order:stroke markers fill"
       d="m 6.5381022,2.824117 c -2.3306911,0 -4.2069783,1.9985535 -4.2069783,4.4808635 V 29.932023 c 0,2.48231 1.8762872,4.480864 4.2069783,4.480864 H 46.184778 c 2.330691,0 4.206978,-1.998554 4.206978,-4.480864 V 7.3049805 c 0,-2.48231 -1.876287,-4.4808635 -4.206978,-4.4808635 z m 15.3928588,8.59224 c 0.879516,0 1.654809,0.174364 2.32544,0.523999 0.681624,0.349636 1.209054,0.854159 1.582849,1.513086 0.384788,0.645481 0.577225,1.398653 0.577225,2.259294 0,0.766509 -0.137528,1.492338 -0.412378,2.178162 -0.263854,0.672375 -0.780716,1.43896 -1.550292,2.299601 l -2.176612,2.460832 h 4.452442 v 3.167248 H 17.742069 V 23.31744 l 4.320667,-4.942334 c 0.41777,-0.484111 0.698371,-0.894228 0.841292,-1.230416 0.142922,-0.349635 0.214458,-0.699396 0.214458,-1.049032 0,-0.457215 -0.126444,-0.813165 -0.379305,-1.068668 -0.252861,-0.255503 -0.621109,-0.383439 -1.104843,-0.383439 -0.428764,0 -0.824724,0.12123 -1.187524,0.363285 -0.351806,0.228607 -0.642975,0.564439 -0.873849,1.008207 l -2.424658,-1.653646 c 0.450752,-0.914431 1.082973,-1.634071 1.896525,-2.158524 0.813553,-0.524453 1.77574,-0.786516 2.886129,-0.786516 z m 11.972396,0 c 0.659637,0 1.286315,0.08718 1.879989,0.262 0.593673,0.174818 1.099449,0.430174 1.51722,0.766361 l -1.187525,2.864425 c -0.560692,-0.48411 -1.269474,-0.726054 -2.127002,-0.726054 -0.83554,0 -1.512101,0.282181 -2.028817,0.846977 -0.516715,0.564795 -0.813427,1.378324 -0.890384,2.440678 0.659637,-0.699271 1.528118,-1.048515 2.605525,-1.048515 0.725601,0 1.391077,0.188293 1.995744,0.564823 0.604668,0.363084 1.082731,0.887208 1.434538,1.573031 0.3628,0.672376 0.544153,1.445666 0.544153,2.319755 0,0.954773 -0.203523,1.801833 -0.610299,2.541447 -0.395782,0.726166 -0.939839,1.291045 -1.632458,1.69447 -0.681625,0.389978 -1.445833,0.584977 -2.292367,0.584977 -1.649093,0 -2.951815,-0.598411 -3.908289,-1.795239 -0.956473,-1.196829 -1.434537,-2.917775 -1.434537,-5.163509 0,-1.613702 0.252888,-2.998816 0.75861,-4.155302 0.516715,-1.169933 1.236583,-2.057748 2.160075,-2.662886 0.923491,-0.605138 1.995495,-0.907439 3.215824,-0.907439 z M 5.0110636,11.698511 h 3.2654338 v 5.305102 h 4.4524416 v -5.305102 h 3.265434 V 25.818579 H 12.728939 V 20.311938 H 8.2764974 v 5.506641 H 5.0110636 Z m 34.5487954,0 h 7.35459 v 3.086116 h -4.650362 l -0.148311,2.057756 h 0.775146 c 1.616111,0 2.809016,0.40341 3.578593,1.210262 0.780571,0.806851 1.170988,1.882442 1.170988,3.227193 0,0.874088 -0.186895,1.680911 -0.560689,2.420524 -0.362801,0.726166 -0.923485,1.311164 -1.682068,1.754932 -0.747589,0.43032 -1.677038,0.645438 -2.787427,0.645438 -0.813552,0 -1.621583,-0.120713 -2.424141,-0.362768 -0.791565,-0.242055 -1.473151,-0.58511 -2.044837,-1.028878 l 1.170988,-3.005501 c 0.461746,0.37653 0.967523,0.665417 1.51722,0.86713 0.560691,0.201713 1.121376,0.302824 1.682068,0.302824 0.560691,0 1.006017,-0.127937 1.335836,-0.383439 0.340813,-0.26895 0.51108,-0.63883 0.51108,-1.109493 0,-0.470662 -0.164725,-0.826613 -0.494544,-1.068669 -0.329818,-0.242055 -0.912673,-0.363285 -1.748213,-0.363285 h -3.133143 z m -6.662642,7.987626 c -0.47274,0 -0.857098,0.168174 -1.153935,0.504362 -0.296836,0.32274 -0.445451,0.752977 -0.445451,1.290877 0,0.524453 0.143072,0.955206 0.428915,1.291394 0.296836,0.32274 0.692279,0.483692 1.187007,0.483692 0.461746,0 0.835536,-0.160952 1.121379,-0.483692 0.296836,-0.32274 0.445451,-0.760199 0.445451,-1.311548 0,-0.5379 -0.148615,-0.968137 -0.445451,-1.290877 -0.285843,-0.32274 -0.665175,-0.484208 -1.137915,-0.484208 z" />
    <rect
       style="fill:none;stroke-width:1.40685;stroke-linecap:square;stroke-linejoin:round;stroke-dashoffset:3.40157;paint-order:stroke markers fill"
       id="rect2"
       width="42.773319"
       height="28.11392"
       x="4.9747963"
       y="4.5615706"
       rx="3.7442238"
       ry="3.9877975" />
  </g>
</svg>
