<?xml version="1.0" encoding="UTF-8" standalone="no"?>
<!-- Created with Inkscape (http://www.inkscape.org/) -->

<svg
   width="181.64648"
   height="119.39062"
   viewBox="0 0 48.060631 31.588769"
   version="1.1"
   id="svg1"
   inkscape:version="1.4.2 (ebf0e940d0, 2025-05-08)"
   sodipodi:docname="çizim.svg"
   xmlns:inkscape="http://www.inkscape.org/namespaces/inkscape"
   xmlns:sodipodi="http://sodipodi.sourceforge.net/DTD/sodipodi-0.dtd"
   xmlns="http://www.w3.org/2000/svg"
   xmlns:svg="http://www.w3.org/2000/svg">
  <sodipodi:namedview
     id="namedview1"
     pagecolor="#000000"
     bordercolor="#000000"
     borderopacity="0.25"
     inkscape:showpageshadow="2"
     inkscape:pageopacity="0.0"
     inkscape:pagecheckerboard="0"
     inkscape:deskcolor="#d1d1d1"
     inkscape:document-units="mm"
     inkscape:zoom="3.350136"
     inkscape:cx="109.99553"
     inkscape:cy="70.892644"
     inkscape:window-width="1920"
     inkscape:window-height="1005"
     inkscape:window-x="0"
     inkscape:window-y="40"
     inkscape:window-maximized="1"
     inkscape:current-layer="layer1">
    <inkscape:page
       x="0"
       y="0"
       width="48.060631"
       height="31.58877"
       id="page2"
       margin="0"
       bleed="0" />
  </sodipodi:namedview>
  <defs
     id="defs1" />
  <g
     inkscape:label="Katman 1"
     inkscape:groupmode="layer"
     id="layer1"
     transform="translate(-2.3311239,-2.8241168)">
    <path
       id="rect1"
       style="fill:#ffffff;stroke-width:1.58074;stroke-linecap:square;stroke-linejoin:round;stroke-dashoffset:3.40157;paint-order:stroke markers fill"
       d="m 6.5381022,2.824117 c -2.3306911,0 -4.2069783,1.9985535 -4.2069783,4.4808635 V 29.932023 c 0,2.48231 1.8762872,4.480864 4.2069783,4.480864 H 46.184778 c 2.330691,0 4.206978,-1.998554 4.206978,-4.480864 V 7.3049805 c 0,-2.48231 -1.876287,-4.4808635 -4.206978,-4.4808635 z m 0.8971029,8.874394 h 3.2654339 v 5.305102 h 4.452441 v -5.305102 h 3.265434 V 25.818579 H 15.15308 v -5.506641 h -4.452441 v 5.506641 H 7.4352051 Z m 13.3909139,0 h 5.458582 c 1.264304,0 2.385673,0.289404 3.364135,0.867647 0.978462,0.578243 1.737126,1.398479 2.27583,2.460832 0.538704,1.062354 0.807703,2.306119 0.807703,3.731555 0,1.425436 -0.268999,2.669201 -0.807703,3.731555 -0.538704,1.062353 -1.297368,1.882588 -2.27583,2.460832 -0.978462,0.578242 -2.099831,0.867647 -3.364135,0.867647 h -5.458582 z m 13.72061,0 h 5.27668 c 1.044426,0 1.951704,0.215118 2.721281,0.645438 0.769576,0.416873 1.363,1.02199 1.78077,1.815393 0.41777,0.779956 0.626835,1.701303 0.626835,2.763656 0,1.022012 -0.19798,1.916016 -0.593762,2.682524 -0.384789,0.75306 -0.939931,1.344765 -1.665532,1.775085 l 2.490288,4.437972 h -3.496428 l -2.093929,-3.752226 h -1.781286 v 3.752226 h -3.264917 z m 3.264917,3.146578 v 4.135148 h 1.813842 c 0.670632,0 1.176408,-0.174881 1.51722,-0.524516 0.340813,-0.363083 0.511597,-0.873794 0.511597,-1.532723 0,-0.658928 -0.170784,-1.170156 -0.511597,-1.53324 -0.340812,-0.363082 -0.846588,-0.544669 -1.51722,-0.544669 z m -13.72061,0.04031 v 7.745781 h 2.061373 c 0.989455,0 1.781375,-0.342538 2.375049,-1.028361 0.604667,-0.685824 0.906921,-1.633995 0.906921,-2.844271 0,-1.210276 -0.302254,-2.158447 -0.906921,-2.844271 -0.593674,-0.685823 -1.385594,-1.028878 -2.375049,-1.028878 z" />
    <rect
       style="fill:none;stroke-width:1.40685;stroke-linecap:square;stroke-linejoin:round;stroke-dashoffset:3.40157;paint-order:stroke markers fill"
       id="rect2"
       width="42.773319"
       height="28.11392"
       x="4.9747963"
       y="4.5615706"
       rx="3.7442238"
       ry="3.9877975" />
  </g>
</svg>
