<?xml version="1.0" encoding="UTF-8" standalone="no"?>
<!-- Created with Inkscape (http://www.inkscape.org/) -->

<svg
   width="181.64648"
   height="119.39062"
   viewBox="0 0 48.060631 31.588769"
   version="1.1"
   id="svg1"
   inkscape:version="1.4.2 (ebf0e940d0, 2025-05-08)"
   sodipodi:docname="çizim.svg"
   xmlns:inkscape="http://www.inkscape.org/namespaces/inkscape"
   xmlns:sodipodi="http://sodipodi.sourceforge.net/DTD/sodipodi-0.dtd"
   xmlns="http://www.w3.org/2000/svg"
   xmlns:svg="http://www.w3.org/2000/svg">
  <sodipodi:namedview
     id="namedview1"
     pagecolor="#000000"
     bordercolor="#000000"
     borderopacity="0.25"
     inkscape:showpageshadow="2"
     inkscape:pageopacity="0.0"
     inkscape:pagecheckerboard="0"
     inkscape:deskcolor="#d1d1d1"
     inkscape:document-units="mm"
     inkscape:zoom="3.350136"
     inkscape:cx="109.99553"
     inkscape:cy="70.892644"
     inkscape:window-width="1920"
     inkscape:window-height="1005"
     inkscape:window-x="0"
     inkscape:window-y="40"
     inkscape:window-maximized="1"
     inkscape:current-layer="layer1">
    <inkscape:page
       x="0"
       y="0"
       width="48.060631"
       height="31.58877"
       id="page2"
       margin="0"
       bleed="0" />
  </sodipodi:namedview>
  <defs
     id="defs1" />
  <g
     inkscape:label="Katman 1"
     inkscape:groupmode="layer"
     id="layer1"
     transform="translate(-2.3311239,-2.8241168)">
    <path
       id="rect1"
       style="fill:#ffffff;stroke-width:1.58074;stroke-linecap:square;stroke-linejoin:round;stroke-dashoffset:3.40157;paint-order:stroke markers fill"
       d="m 6.5381022,2.824117 c -2.3306911,0 -4.2069783,1.9985535 -4.2069783,4.4808635 V 29.932023 c 0,2.48231 1.8762872,4.480864 4.2069783,4.480864 H 46.184778 c 2.330691,0 4.206978,-1.998554 4.206978,-4.480864 V 7.3049805 c 0,-2.48231 -1.876287,-4.4808635 -4.206978,-4.4808635 z m 25.4868168,9.39891 c 0.939412,0 1.785893,0.203854 2.53938,0.610815 0.753486,0.40696 1.379892,0.993023 1.878955,1.759066 l -1.8495,2.046903 C 33.928338,15.658319 33.120877,15.16755 32.17168,15.16755 c -0.557776,0 -1.056717,0.149832 -1.497067,0.449068 -0.430564,0.299235 -0.768219,0.724264 -1.012858,1.274857 -0.234852,0.538624 -0.351916,1.160874 -0.351916,1.86707 0,0.706195 0.117064,1.334563 0.351916,1.885156 0.244639,0.538624 0.582294,0.957536 1.012858,1.256771 0.44035,0.299235 0.939291,0.449068 1.497067,0.449068 0.949197,0 1.756658,-0.490769 2.422074,-1.472261 l 1.8495,2.046386 c -0.499063,0.766043 -1.125469,1.352623 -1.878955,1.759583 -0.753487,0.40696 -1.599968,0.610299 -2.53938,0.610299 -1.07641,0 -2.045156,-0.275197 -2.906283,-0.82579 -0.851342,-0.562563 -1.521453,-1.340245 -2.01073,-2.333708 -0.489277,-0.993461 -0.733805,-2.118715 -0.733805,-3.375504 0,-1.256789 0.244528,-2.382043 0.733805,-3.375505 0.489277,-0.993461 1.159388,-1.765544 2.01073,-2.316137 0.861127,-0.562563 1.829873,-0.843876 2.906283,-0.843876 z M 5.0462036,12.474691 h 2.9062826 v 4.721675 h 3.9635828 v -4.721675 h 2.906282 v 12.567708 h -2.906282 v -4.90151 H 7.9524862 v 4.90151 H 5.0462036 Z m 11.9191694,0 h 8.058423 v 2.746602 H 19.8422 v 2.118734 h 4.565096 v 2.657202 H 19.8422 v 2.298051 h 5.372282 v 2.747119 h -8.249109 z m 19.595186,0 h 3.14141 l 2.788977,8.187097 2.847372,-8.187097 h 2.876827 l -4.403349,12.567708 h -2.862358 z" />
    <rect
       style="fill:none;stroke-width:1.40685;stroke-linecap:square;stroke-linejoin:round;stroke-dashoffset:3.40157;paint-order:stroke markers fill"
       id="rect2"
       width="42.773319"
       height="28.11392"
       x="4.9747963"
       y="4.5615706"
       rx="3.7442238"
       ry="3.9877975" />
  </g>
</svg>
