<?xml version="1.0" encoding="UTF-8" standalone="no"?>
<!-- Created with Inkscape (http://www.inkscape.org/) -->

<svg
   width="181.64648"
   height="119.39062"
   viewBox="0 0 48.060631 31.588769"
   version="1.1"
   id="svg1"
   inkscape:version="1.4.2 (ebf0e940d0, 2025-05-08)"
   sodipodi:docname="çizim.svg"
   xmlns:inkscape="http://www.inkscape.org/namespaces/inkscape"
   xmlns:sodipodi="http://sodipodi.sourceforge.net/DTD/sodipodi-0.dtd"
   xmlns="http://www.w3.org/2000/svg"
   xmlns:svg="http://www.w3.org/2000/svg">
  <sodipodi:namedview
     id="namedview1"
     pagecolor="#000000"
     bordercolor="#000000"
     borderopacity="0.25"
     inkscape:showpageshadow="2"
     inkscape:pageopacity="0.0"
     inkscape:pagecheckerboard="0"
     inkscape:deskcolor="#d1d1d1"
     inkscape:document-units="mm"
     inkscape:zoom="3.350136"
     inkscape:cx="109.99553"
     inkscape:cy="70.892644"
     inkscape:window-width="1920"
     inkscape:window-height="1005"
     inkscape:window-x="0"
     inkscape:window-y="40"
     inkscape:window-maximized="1"
     inkscape:current-layer="layer1">
    <inkscape:page
       x="0"
       y="0"
       width="48.060631"
       height="31.58877"
       id="page2"
       margin="0"
       bleed="0" />
  </sodipodi:namedview>
  <defs
     id="defs1" />
  <g
     inkscape:label="Katman 1"
     inkscape:groupmode="layer"
     id="layer1"
     transform="translate(-2.3311239,-2.8241168)">
    <path
       id="rect1"
       style="fill:#ffffff;stroke-width:1.58074;stroke-linecap:square;stroke-linejoin:round;stroke-dashoffset:3.40157;paint-order:stroke markers fill"
       d="m 6.5381022,2.824117 c -2.3306911,0 -4.2069783,1.9985535 -4.2069783,4.4808635 V 29.932023 c 0,2.48231 1.8762872,4.480864 4.2069783,4.480864 H 46.184778 c 2.330691,0 4.206978,-1.998554 4.206978,-4.480864 V 7.3049805 c 0,-2.48231 -1.876287,-4.4808635 -4.206978,-4.4808635 z m 37.3548258,9.910506 c 0.883913,0 1.677211,0.18215 2.380733,0.54622 0.703523,0.364071 1.290051,0.887986 1.759066,1.571997 l -1.704805,1.886707 c -0.640386,-0.860531 -1.407186,-1.290878 -2.300118,-1.290878 -0.811757,0 -1.465564,0.303238 -1.961638,0.910022 -0.496073,0.595752 -0.74414,1.395902 -0.74414,2.399854 0,0.639881 0.112992,1.213333 0.33848,1.720825 0.225488,0.49646 0.540834,0.888279 0.946712,1.175122 0.405879,0.275811 0.870582,0.413928 1.393714,0.413928 0.514112,0 0.996481,-0.127109 1.447457,-0.380855 v -3.177067 h 2.367814 v 4.798674 c -0.541171,0.474394 -1.163547,0.838693 -1.86707,1.092439 -0.703522,0.253746 -1.406943,0.380339 -2.110465,0.380339 -0.992147,0 -1.885189,-0.253702 -2.678906,-0.761194 -0.793718,-0.518525 -1.416094,-1.235597 -1.86707,-2.15129 -0.450976,-0.915692 -0.676444,-1.952515 -0.676444,-3.110921 0,-1.158406 0.225468,-2.195745 0.676444,-3.111438 0.450976,-0.915692 1.077768,-1.627261 1.880505,-2.134753 0.802738,-0.518525 1.709545,-0.777731 2.719731,-0.777731 z M 4.3382365,12.96665 h 2.2055501 l 3.3279623,6.68538 3.2473471,-6.68538 h 2.205033 l 0.02739,11.583789 h -2.462382 l -0.02739,-6.139676 -2.434993,4.998144 H 9.2361287 L 6.8145711,18.576644 v 5.973795 H 4.3382365 Z m 13.8885575,0 h 4.329452 c 0.856854,0 1.601056,0.176129 2.232422,0.529167 0.631366,0.342006 1.118151,0.838401 1.460893,1.489315 0.342741,0.639881 0.51418,1.395998 0.51418,2.267562 0,0.871562 -0.171439,1.627163 -0.51418,2.267045 -0.342742,0.639881 -0.829527,1.136277 -1.460893,1.489315 -0.631366,0.342005 -1.375568,0.513147 -2.232422,0.513147 h -1.650545 v 3.028238 h -2.678907 z m 10.816911,0 h 7.427971 v 2.531629 H 31.69574 v 1.952852 h 4.207495 v 2.448946 H 31.69574 v 2.118734 h 4.951635 v 2.531628 h -7.60367 z m -8.138004,2.581238 v 3.392558 h 1.488281 c 0.550191,0 0.964763,-0.143105 1.244368,-0.429948 0.279605,-0.297876 0.419613,-0.717215 0.419613,-1.257804 0,-0.54059 -0.140008,-0.959929 -0.419613,-1.257805 -0.279605,-0.297876 -0.694177,-0.447001 -1.244368,-0.447001 z" />
    <rect
       style="fill:none;stroke-width:1.40685;stroke-linecap:square;stroke-linejoin:round;stroke-dashoffset:3.40157;paint-order:stroke markers fill"
       id="rect2"
       width="42.773319"
       height="28.11392"
       x="4.9747963"
       y="4.5615706"
       rx="3.7442238"
       ry="3.9877975" />
  </g>
</svg>
