<?xml version="1.0" encoding="UTF-8" standalone="no"?>
<!-- Created with Inkscape (http://www.inkscape.org/) -->

<svg
   width="181.64648"
   height="119.39062"
   viewBox="0 0 48.060631 31.588769"
   version="1.1"
   id="svg1"
   inkscape:version="1.4.2 (ebf0e940d0, 2025-05-08)"
   sodipodi:docname="çizim.svg"
   xmlns:inkscape="http://www.inkscape.org/namespaces/inkscape"
   xmlns:sodipodi="http://sodipodi.sourceforge.net/DTD/sodipodi-0.dtd"
   xmlns="http://www.w3.org/2000/svg"
   xmlns:svg="http://www.w3.org/2000/svg">
  <sodipodi:namedview
     id="namedview1"
     pagecolor="#000000"
     bordercolor="#000000"
     borderopacity="0.25"
     inkscape:showpageshadow="2"
     inkscape:pageopacity="0.0"
     inkscape:pagecheckerboard="0"
     inkscape:deskcolor="#d1d1d1"
     inkscape:document-units="mm"
     inkscape:zoom="3.350136"
     inkscape:cx="109.99553"
     inkscape:cy="70.892644"
     inkscape:window-width="1920"
     inkscape:window-height="1005"
     inkscape:window-x="0"
     inkscape:window-y="40"
     inkscape:window-maximized="1"
     inkscape:current-layer="layer1">
    <inkscape:page
       x="0"
       y="0"
       width="48.060631"
       height="31.58877"
       id="page2"
       margin="0"
       bleed="0" />
  </sodipodi:namedview>
  <defs
     id="defs1" />
  <g
     inkscape:label="Katman 1"
     inkscape:groupmode="layer"
     id="layer1"
     transform="translate(-2.3311239,-2.8241168)">
    <path
       id="rect1"
       style="fill:#ffffff;stroke-width:1.58074;stroke-linecap:square;stroke-linejoin:round;stroke-dashoffset:3.40157;paint-order:stroke markers fill"
       d="m 6.5381022,2.824117 c -2.3306911,0 -4.2069783,1.9985535 -4.2069783,4.4808635 V 29.932023 c 0,2.48231 1.8762872,4.480864 4.2069783,4.480864 H 46.184778 c 2.330691,0 4.206978,-1.998554 4.206978,-4.480864 V 7.3049805 c 0,-2.48231 -1.876287,-4.4808635 -4.206978,-4.4808635 z m 12.8612308,8.59224 c 0.758583,0 1.506679,0.107301 2.243274,0.322461 0.736595,0.201713 1.384926,0.50453 1.945617,0.907955 l -1.00614,2.965194 c -1.099395,-0.726166 -2.16534,-1.089339 -3.198771,-1.089339 -0.648643,0 -1.121682,0.120713 -1.418518,0.362768 -0.296837,0.228608 -0.444934,0.531425 -0.444934,0.907955 0,0.376531 0.17581,0.658712 0.527616,0.846977 0.351807,0.188265 0.918034,0.383264 1.698605,0.584977 0.879516,0.228608 1.604925,0.477774 2.176611,0.746725 0.582679,0.255502 1.082913,0.672326 1.500683,1.250569 0.428765,0.564796 0.643372,1.338087 0.643372,2.319755 0,0.847194 -0.192437,1.613262 -0.577226,2.299085 -0.384788,0.685823 -0.9621,1.23729 -1.731677,1.654162 -0.769576,0.403426 -1.704051,0.605131 -2.803446,0.605131 -0.934486,0 -1.841765,-0.141349 -2.721281,-0.423746 -0.879516,-0.282398 -1.593841,-0.658468 -2.143539,-1.12913 l 1.071769,-2.94504 c 0.516716,0.416872 1.116199,0.752704 1.797824,1.008207 0.681624,0.255502 1.352126,0.383439 2.011763,0.383439 1.25331,0 1.879989,-0.383293 1.879989,-1.149801 0,-0.403425 -0.181353,-0.699019 -0.544153,-0.887284 -0.351807,-0.201713 -0.923577,-0.410125 -1.715141,-0.625285 -0.868522,-0.228607 -1.594449,-0.471067 -2.177128,-0.72657 -0.58268,-0.268951 -1.082914,-0.692481 -1.500684,-1.270724 -0.41777,-0.578243 -0.626318,-1.35824 -0.626318,-2.339909 0,-0.86064 0.192438,-1.633932 0.577226,-2.319755 0.384788,-0.69927 0.956558,-1.25022 1.715141,-1.653646 0.769576,-0.403425 1.709077,-0.605131 2.819466,-0.605131 z m 6.266801,0.282154 h 5.458581 c 1.264305,0 2.385675,0.289404 3.364136,0.867647 0.978462,0.578243 1.737126,1.398479 2.27583,2.460832 0.538703,1.062354 0.807703,2.306119 0.807703,3.731555 0,1.425436 -0.269,2.669201 -0.807703,3.731555 -0.538704,1.062353 -1.297368,1.882588 -2.27583,2.460832 -0.978461,0.578242 -2.099831,0.867647 -3.364136,0.867647 h -5.458581 z m 3.265433,3.186885 v 7.745781 h 2.061373 c 0.989456,0 1.780859,-0.342538 2.374532,-1.028361 0.604668,-0.685824 0.906922,-1.633995 0.906922,-2.844271 0,-1.210276 -0.302254,-2.158447 -0.906922,-2.844271 -0.593673,-0.685823 -1.385076,-1.028878 -2.374532,-1.028878 z" />
    <rect
       style="fill:none;stroke-width:1.40685;stroke-linecap:square;stroke-linejoin:round;stroke-dashoffset:3.40157;paint-order:stroke markers fill"
       id="rect2"
       width="42.773319"
       height="28.11392"
       x="4.9747963"
       y="4.5615706"
       rx="3.7442238"
       ry="3.9877975" />
  </g>
</svg>
