<?xml version="1.0" encoding="UTF-8" standalone="no"?>
<!-- Created with Inkscape (http://www.inkscape.org/) -->

<svg
   width="181.64648"
   height="119.39062"
   viewBox="0 0 48.060631 31.588769"
   version="1.1"
   id="svg1"
   inkscape:version="1.4.2 (ebf0e940d0, 2025-05-08)"
   sodipodi:docname="çizim.svg"
   xmlns:inkscape="http://www.inkscape.org/namespaces/inkscape"
   xmlns:sodipodi="http://sodipodi.sourceforge.net/DTD/sodipodi-0.dtd"
   xmlns="http://www.w3.org/2000/svg"
   xmlns:svg="http://www.w3.org/2000/svg">
  <sodipodi:namedview
     id="namedview1"
     pagecolor="#000000"
     bordercolor="#000000"
     borderopacity="0.25"
     inkscape:showpageshadow="2"
     inkscape:pageopacity="0.0"
     inkscape:pagecheckerboard="0"
     inkscape:deskcolor="#d1d1d1"
     inkscape:document-units="mm"
     inkscape:zoom="3.350136"
     inkscape:cx="109.99553"
     inkscape:cy="70.892644"
     inkscape:window-width="1920"
     inkscape:window-height="1005"
     inkscape:window-x="0"
     inkscape:window-y="40"
     inkscape:window-maximized="1"
     inkscape:current-layer="layer1">
    <inkscape:page
       x="0"
       y="0"
       width="48.060631"
       height="31.58877"
       id="page2"
       margin="0"
       bleed="0" />
  </sodipodi:namedview>
  <defs
     id="defs1" />
  <g
     inkscape:label="Katman 1"
     inkscape:groupmode="layer"
     id="layer1"
     transform="translate(-2.3311239,-2.8241168)">
    <path
       id="rect1"
       style="fill:#ffffff;stroke-width:1.58074;stroke-linecap:square;stroke-linejoin:round;stroke-dashoffset:3.40157;paint-order:stroke markers fill"
       d="m 6.5381022,2.824117 c -2.3306911,0 -4.2069783,1.9985535 -4.2069783,4.4808635 V 29.932023 c 0,2.48231 1.8762872,4.480864 4.2069783,4.480864 H 46.184778 c 2.330691,0 4.206978,-1.998554 4.206978,-4.480864 V 7.3049805 c 0,-2.48231 -1.876287,-4.4808635 -4.206978,-4.4808635 z m 6.7101848,8.59224 c 0.758583,0 1.506163,0.107301 2.242757,0.322461 0.736595,0.201713 1.385443,0.50453 1.946135,0.907955 l -1.006141,2.965194 c -1.099395,-0.726166 -2.165856,-1.089339 -3.199288,-1.089339 -0.648642,0 -1.121164,0.120713 -1.418001,0.362768 -0.296836,0.228608 -0.445451,0.531425 -0.445451,0.907955 0,0.376531 0.176327,0.658712 0.528133,0.846977 0.351807,0.188265 0.918034,0.383264 1.698605,0.584977 0.879516,0.228608 1.604926,0.477774 2.176611,0.746725 0.582679,0.255502 1.082914,0.672326 1.500684,1.250569 0.428764,0.564796 0.642855,1.338087 0.642855,2.319755 0,0.847194 -0.191921,1.613262 -0.576709,2.299085 -0.384788,0.685823 -0.962101,1.23729 -1.731678,1.654162 -0.769576,0.403426 -1.704051,0.605131 -2.803446,0.605131 -0.934486,0 -1.841765,-0.141349 -2.721281,-0.423746 -0.8795162,-0.282398 -1.593841,-0.658468 -2.1435385,-1.12913 l 1.0717692,-2.94504 c 0.5167158,0.416872 1.1156813,0.752704 1.7973063,1.008207 0.681625,0.255502 1.352643,0.383439 2.01228,0.383439 1.253311,0 1.879989,-0.383293 1.879989,-1.149801 0,-0.403425 -0.181353,-0.699019 -0.544153,-0.887284 -0.351806,-0.201713 -0.923576,-0.410125 -1.715141,-0.625285 -0.868521,-0.228607 -1.594448,-0.471067 -2.177128,-0.72657 C 9.6807772,19.336571 9.1805429,18.913041 8.7627726,18.334798 8.3450025,17.756555 8.1364543,16.976558 8.1364543,15.994889 c 0,-0.86064 0.1924375,-1.633932 0.5772257,-2.319755 0.3847884,-0.69927 0.9560418,-1.25022 1.714624,-1.653646 0.769577,-0.403425 1.709594,-0.605131 2.819983,-0.605131 z m 6.266801,0.282154 h 5.458581 c 1.264305,0 2.385675,0.289404 3.364136,0.867647 0.978462,0.578243 1.737127,1.398479 2.27583,2.460832 0.538704,1.062354 0.807703,2.306119 0.807703,3.731555 0,1.425436 -0.268999,2.669201 -0.807703,3.731555 -0.538703,1.062353 -1.297368,1.882588 -2.27583,2.460832 -0.978461,0.578242 -2.099831,0.867647 -3.364136,0.867647 h -5.458581 z m 13.720609,0 h 5.276681 c 1.044426,0 1.951704,0.215118 2.721281,0.645438 0.769576,0.416873 1.363,1.02199 1.78077,1.815393 0.41777,0.779956 0.626835,1.701303 0.626835,2.763656 0,1.022012 -0.19798,1.916016 -0.593762,2.682524 -0.384788,0.75306 -0.93993,1.344765 -1.665532,1.775085 l 2.490287,4.437972 H 40.37583 l -2.093929,-3.752226 h -1.781287 v 3.752226 h -3.264917 z m 3.264917,3.146578 v 4.135148 h 1.813843 c 0.670631,0 1.176408,-0.174881 1.51722,-0.524516 0.340813,-0.363083 0.511597,-0.873794 0.511597,-1.532723 0,-0.658928 -0.170784,-1.170156 -0.511597,-1.53324 -0.340812,-0.363082 -0.846589,-0.544669 -1.51722,-0.544669 z m -13.720609,0.04031 v 7.745781 h 2.061373 c 0.989455,0 1.781375,-0.342538 2.375049,-1.028361 0.604667,-0.685824 0.906921,-1.633995 0.906921,-2.844271 0,-1.210276 -0.302254,-2.158447 -0.906921,-2.844271 -0.593674,-0.685823 -1.385594,-1.028878 -2.375049,-1.028878 z" />
    <rect
       style="fill:none;stroke-width:1.40685;stroke-linecap:square;stroke-linejoin:round;stroke-dashoffset:3.40157;paint-order:stroke markers fill"
       id="rect2"
       width="42.773319"
       height="28.11392"
       x="4.9747963"
       y="4.5615706"
       rx="3.7442238"
       ry="3.9877975" />
  </g>
</svg>
