<?xml version="1.0" encoding="UTF-8" standalone="no"?>
<!-- Created with Inkscape (http://www.inkscape.org/) -->

<svg
   width="181.64648"
   height="119.39062"
   viewBox="0 0 48.060631 31.588769"
   version="1.1"
   id="svg1"
   inkscape:version="1.4.2 (ebf0e940d0, 2025-05-08)"
   sodipodi:docname="çizim.svg"
   xmlns:inkscape="http://www.inkscape.org/namespaces/inkscape"
   xmlns:sodipodi="http://sodipodi.sourceforge.net/DTD/sodipodi-0.dtd"
   xmlns="http://www.w3.org/2000/svg"
   xmlns:svg="http://www.w3.org/2000/svg">
  <sodipodi:namedview
     id="namedview1"
     pagecolor="#000000"
     bordercolor="#000000"
     borderopacity="0.25"
     inkscape:showpageshadow="2"
     inkscape:pageopacity="0.0"
     inkscape:pagecheckerboard="0"
     inkscape:deskcolor="#d1d1d1"
     inkscape:document-units="mm"
     inkscape:zoom="3.350136"
     inkscape:cx="109.99553"
     inkscape:cy="70.892644"
     inkscape:window-width="1920"
     inkscape:window-height="1005"
     inkscape:window-x="0"
     inkscape:window-y="40"
     inkscape:window-maximized="1"
     inkscape:current-layer="layer1">
    <inkscape:page
       x="0"
       y="0"
       width="48.060631"
       height="31.58877"
       id="page2"
       margin="0"
       bleed="0" />
  </sodipodi:namedview>
  <defs
     id="defs1" />
  <g
     inkscape:label="Katman 1"
     inkscape:groupmode="layer"
     id="layer1"
     transform="translate(-2.3311239,-2.8241168)">
    <path
       id="rect1"
       style="fill:#ffffff;stroke-width:1.58074;stroke-linecap:square;stroke-linejoin:round;stroke-dashoffset:3.40157;paint-order:stroke markers fill"
       d="m 6.5381022,2.824117 c -2.3306911,0 -4.2069783,1.9985535 -4.2069783,4.4808635 V 29.932023 c 0,2.48231 1.8762872,4.480864 4.2069783,4.480864 H 46.184778 c 2.330691,0 4.206978,-1.998554 4.206978,-4.480864 V 7.3049805 c 0,-2.48231 -1.876287,-4.4808635 -4.206978,-4.4808635 z m 31.6983238,8.59224 c 1.660087,0 2.968351,0.598411 3.924825,1.79524 0.956473,1.196829 1.435054,2.917774 1.435054,5.163509 0,1.613701 -0.258431,3.005522 -0.775146,4.175456 -0.505722,1.156486 -1.226106,2.037594 -2.160592,2.642732 -0.923492,0.605138 -1.994979,0.907438 -3.215307,0.907438 -0.648643,0 -1.269779,-0.09389 -1.863453,-0.282153 -0.593673,-0.174817 -1.099449,-0.423984 -1.51722,-0.746724 l 1.187008,-2.863908 c 0.560691,0.48411 1.269991,0.726054 2.127519,0.726054 0.824546,0 1.489505,-0.275475 1.995227,-0.826823 0.516715,-0.564796 0.81897,-1.378842 0.906921,-2.441195 -0.659637,0.685823 -1.522576,1.028878 -2.588989,1.028878 -0.725601,0 -1.39056,-0.181587 -1.995227,-0.54467 -0.604667,-0.37653 -1.088274,-0.900655 -1.451074,-1.57303 -0.351807,-0.685824 -0.527617,-1.465821 -0.527617,-2.339909 0,-0.954773 0.197464,-1.795644 0.593246,-2.52181 0.406776,-0.739614 0.95135,-1.303976 1.632975,-1.693954 0.692619,-0.403425 1.45631,-0.605131 2.29185,-0.605131 z M 6.2926392,11.698511 h 3.5289835 l 3.1331423,9.197888 3.199288,-9.197888 h 3.232361 l -4.947502,14.120068 h -3.215308 z m 14.9660118,0 h 5.277197 c 1.044425,0 1.951188,0.215118 2.720764,0.645438 0.769577,0.416873 1.363517,1.02199 1.781287,1.815393 0.41777,0.779956 0.626318,1.701303 0.626318,2.763656 0,1.062354 -0.208548,1.983183 -0.626318,2.763139 -0.41777,0.779956 -1.01171,1.385073 -1.781287,1.815393 -0.769576,0.416873 -1.676339,0.625802 -2.720764,0.625802 h -2.011764 v 3.691247 h -3.265433 z m 17.192232,2.5616 c -0.461746,0 -0.841078,0.161468 -1.137915,0.484209 -0.285843,0.32274 -0.428398,0.759682 -0.428398,1.311031 0,0.5379 0.142555,0.968653 0.428398,1.291394 0.296837,0.32274 0.681712,0.483691 1.154451,0.483691 0.472741,0 0.857616,-0.160951 1.154452,-0.483691 0.296837,-0.336188 0.445451,-0.773648 0.445451,-1.311548 0,-0.524453 -0.148614,-0.947983 -0.445451,-1.270724 -0.285843,-0.336188 -0.676261,-0.504362 -1.170988,-0.504362 z m -13.926799,0.584978 v 4.135148 h 1.813843 c 0.670631,0 1.176408,-0.174881 1.51722,-0.524516 0.340812,-0.363083 0.51108,-0.873794 0.51108,-1.532723 0,-0.658928 -0.170268,-1.170156 -0.51108,-1.53324 -0.340812,-0.363082 -0.846589,-0.544669 -1.51722,-0.544669 z" />
    <rect
       style="fill:none;stroke-width:1.40685;stroke-linecap:square;stroke-linejoin:round;stroke-dashoffset:3.40157;paint-order:stroke markers fill"
       id="rect2"
       width="42.773319"
       height="28.11392"
       x="4.9747963"
       y="4.5615706"
       rx="3.7442238"
       ry="3.9877975" />
  </g>
</svg>
