<svg width="36" height="36" viewBox="0 0 32 32" fill="none" xmlns="http://www.w3.org/2000/svg">
<path fill-rule="evenodd" clip-rule="evenodd" d="M17.6924 0.00418235C25.7144 0.85785 32 7.69138 32 15.9561C32 20.2286 30.318 24.1203 27.5884 26.9993L26.0399 25.1455L28.1894 23.3378L26.0316 20.7558L23.8821 22.5636L22.4129 20.8061C23.4313 19.4544 24.0365 17.7722 24.0365 15.9561C24.0365 11.989 21.1525 8.67477 17.3752 8.01778V4.08003L19.8461 6.43598L22.029 4.13862L17.6924 0V0.00418235ZM25.1008 29.1377C22.5131 30.9413 19.3786 32 16.0021 32C7.18716 32 0 24.794 0 15.9561C0 7.8211 6.08948 1.07127 13.9319 0.0460314L9.64132 4.13862L11.82 6.43598L14.0196 4.3353V8.14332C10.5428 9.03047 7.95931 12.1982 7.95931 15.9519C7.95931 20.3876 11.5696 24.0073 15.9937 24.0073C17.4253 24.0073 18.7734 23.6265 19.9379 22.9653L21.3612 24.6685L19.2117 26.4763L21.3695 29.0582L23.519 27.2504L25.0925 29.1335L25.1008 29.1377ZM19.892 18.9857L18.2935 20.329C17.609 20.6931 16.8285 20.8939 16.0021 20.8939C13.2892 20.8939 11.0729 18.6761 11.0729 15.9519C11.0729 13.2277 13.285 11.0098 16.0021 11.0098C18.7192 11.0098 20.9313 13.2319 20.9313 15.9519C20.9313 17.0901 20.5431 18.1446 19.892 18.9816" fill="white"/>
</svg>
