<svg width="36" height="36" viewBox="0 0 32 33" fill="none" xmlns="http://www.w3.org/2000/svg">
<path fill-rule="evenodd" clip-rule="evenodd" d="M16 0.150391C24.8152 0.150391 32 7.33517 32 16.1504C32 24.9656 24.8111 32.1504 16 32.1504C7.18895 32.1504 0 24.9614 0 16.1504C0 7.33934 7.18478 0.150391 16 0.150391ZM14.0568 12.2724C15.6039 12.2724 16.8632 13.5317 16.8632 15.0787C16.8632 16.1921 16.2127 17.1553 15.2703 17.6099C15.1118 18.0727 15.4162 18.4564 16.2002 18.79C16.8715 19.0735 17.1009 19.528 17.2385 19.9992C17.3219 20.2828 17.6721 20.3203 17.7347 19.9992C18.0891 18.1144 18.9648 17.122 20.1282 16.6841C20.6661 16.484 21.129 16.3255 21.0665 15.6959C19.7154 15.2288 18.7438 13.9445 18.7438 12.4392C18.7438 10.5418 20.2909 8.9948 22.1882 8.9948C24.0855 8.9948 25.6325 10.5418 25.6325 12.4392C25.6325 13.7819 24.8569 14.9453 23.7352 15.5166C23.656 15.9627 23.7644 16.4006 24.1981 16.5716C25.6284 17.1387 26.5249 18.1061 26.7501 19.8866V23.0891H27.3797C28.6182 21.0626 29.3396 18.6899 29.3396 16.1504C29.3396 8.80298 23.3516 2.81497 16.0042 2.81497C8.65676 2.81497 2.66458 8.80298 2.66458 16.1504C2.66458 19.1652 3.67787 21.9549 5.37503 24.1942C5.48345 24.0482 5.5877 23.9023 5.69195 23.7563C5.64608 23.0683 5.63357 22.3803 5.70863 21.6922C5.77952 21.1376 6.22153 20.4037 6.90539 20.3578C6.90539 20.1243 6.91373 19.9826 6.91373 19.8241C6.17566 19.478 5.66276 18.7316 5.66276 17.8642C5.66276 16.6716 6.63435 15.7042 7.82278 15.7042C9.01121 15.7042 9.98697 16.6758 9.98697 17.8642C9.98697 18.7733 9.41986 19.5572 8.61923 19.8741V20.2744C9.30727 20.4412 9.7743 20.9917 9.9411 21.5755C9.96195 21.5755 9.97863 21.5755 9.99531 21.5755C10.0829 21.9883 10.5791 21.8548 10.6208 21.4295C10.7751 19.9242 11.5173 19.0527 12.6307 18.6232C12.9685 18.5189 13.006 18.1061 12.9351 17.6557C11.9385 17.2221 11.2379 16.2296 11.2379 15.0787C11.2379 13.5317 12.5014 12.2724 14.0443 12.2724" fill="white"/>
</svg>
