<svg width="36" height="36" viewBox="0 0 32 32" fill="none" xmlns="http://www.w3.org/2000/svg">
<path fill-rule="evenodd" clip-rule="evenodd" d="M16 0C17.9657 0 19.8454 0.356284 21.5859 1.01152L16.0369 6.17968L11.4584 2.47351L11.1308 7.32224L1.74047 9.8367L12.4372 10.537L12.601 7.05196L14.5093 10.4305L20.0133 3.40312L19.1943 10.3773L23.3345 9.34118L20.7177 12.7197L25.1323 20.0747L17.6668 17.4047L17.8306 22.3107L14.6691 19.3704L7.36729 21.8234L12.7607 15.9918L1.17533 9.97184C3.56693 4.13616 9.30842 0.00818593 15.9877 0.00818593M23.3059 1.77323C25.6852 3.00179 27.7205 4.80778 29.2194 7.00691L20.7259 8.52214L23.3059 1.76913V1.77323ZM30.022 8.31328C31.2792 10.5984 32 13.2193 32 16C32 18.1787 31.5618 20.2549 30.7673 22.151L22.6342 13.3176L30.0261 8.31328H30.022ZM30.7387 22.2206C28.302 27.958 22.6097 32 16 32C10.5042 32 5.63911 29.203 2.75608 24.9603L14.0793 21.0003L21.7046 26.1234L19.0346 19.2025L30.7346 22.2206H30.7387ZM2.23189 24.129C0.814946 21.7456 0 18.9649 0 16C0 14.7182 0.155619 13.4692 0.442284 12.2693L9.72204 16.6389L2.23189 24.129Z" fill="white"/>
</svg>
